<svg width="32" height="32" viewBox="0 0 32 32" fill="none" xmlns="http://www.w3.org/2000/svg">
<path d="M27.1828 12.6463C27.2088 12.7401 27.214 12.8391 27.188 12.9329L26.5529 15.2567C26.506 15.4338 26.3707 15.5693 26.1989 15.6214L12.6901 19.5604C12.4142 19.6438 12.1226 19.4823 12.0445 19.2009L9.44169 9.96301C9.36361 9.68687 9.52498 9.4003 9.79568 9.32214L24.3665 5.03926C24.6424 4.96111 24.9287 5.11742 25.012 5.38835L25.3816 6.51899L26.0323 6.33142L25.4701 4.54949C25.3868 4.27335 25.1005 4.11704 24.8246 4.2004L8.96277 8.85842C8.68686 8.93658 8.53069 9.22315 8.60878 9.49929L11.5708 20.045C11.6489 20.3263 11.9404 20.4879 12.2163 20.4045L26.7455 16.1685C26.9173 16.1164 27.0526 15.9809 27.0995 15.8038L27.8855 12.9277C27.9116 12.8339 27.9116 12.7349 27.8803 12.6411L27.5836 11.6199L26.9329 11.8075L27.1828 12.6463Z" fill="#DD7432"/>
<path d="M28.558 5.25586C28.0996 5.25586 27.7246 5.63025 27.7194 6.08783L26.0421 6.56622L25.3858 6.74821L17.2599 9.06734L12.7334 13.0192L12.3792 11.6985L12.874 10.8509L15.1711 10.1541L15.0201 9.65492L12.5302 10.4089L11.8218 11.6205L12.4469 13.9604L17.5151 9.53533L25.5369 7.2474L26.188 7.0602L27.8757 6.57662C28.0267 6.78981 28.2767 6.92501 28.558 6.92501C29.0216 6.92501 29.3967 6.55062 29.3967 6.08783C29.3967 5.62505 29.0216 5.25586 28.558 5.25586ZM28.558 6.41022C28.3809 6.41022 28.2403 6.26983 28.2403 6.09303C28.2403 5.91624 28.3809 5.77584 28.558 5.77584C28.7351 5.77584 28.8758 5.91624 28.8758 6.09303C28.8758 6.26983 28.7351 6.41022 28.558 6.41022Z" fill="#DD7432"/>
<path d="M29.216 7.41162C28.7628 7.41162 28.3981 7.77084 28.3773 8.21856L26.6895 8.70272L26.0384 8.89014L17.9173 11.212L13.3905 15.1686L13.1561 14.2888L12.6508 14.4242L13.104 16.1161L18.1725 11.6858L26.1894 9.39513L26.8406 9.20771L28.5232 8.72875C28.6742 8.95261 28.9295 9.09838 29.2212 9.09838C29.6848 9.09838 30.0599 8.72355 30.0599 8.26021C30.0547 7.78646 29.6796 7.41162 29.216 7.41162ZM29.216 8.56737C29.0389 8.56737 28.8982 8.4268 28.8982 8.2498C28.8982 8.07279 29.0389 7.93223 29.216 7.93223C29.3931 7.93223 29.5337 8.07279 29.5337 8.2498C29.5337 8.4268 29.3931 8.56737 29.216 8.56737Z" fill="#DD7432"/>
<path d="M29.723 9.56641C29.2589 9.56641 28.8835 9.94073 28.8835 10.4034C28.8835 10.4086 28.8835 10.4138 28.8835 10.4138L27.3296 10.8557L26.6778 11.0429L18.5226 13.3668L15.2063 16.2574L13.3969 16.6889L13.5169 17.1932L15.4514 16.7305L18.7729 13.8347L26.8238 11.542L27.4756 11.3548L29.0504 10.9077C29.2016 11.1105 29.4467 11.2405 29.7178 11.2405C30.1819 11.2405 30.5573 10.8661 30.5573 10.4034C30.5573 9.94073 30.1871 9.56641 29.723 9.56641ZM29.723 10.7206C29.5457 10.7206 29.4049 10.5802 29.4049 10.4034C29.4049 10.2267 29.5457 10.0863 29.723 10.0863C29.9003 10.0863 30.0411 10.2267 30.0411 10.4034C30.0411 10.5802 29.9003 10.7206 29.723 10.7206Z" fill="#DD7432"/>
<path d="M17.1897 16.3646L17.0446 15.8506L19.7078 15.0422L20.1378 14.3943L20.0394 13.9071L20.5471 13.7947L20.6922 14.5121L20.029 15.5026L17.1897 16.3646Z" fill="#DD7432"/>
<path d="M3.76956 22.5516L6.07041 18.2206C6.69508 17.1482 6.89289 16.4611 8.07976 16.0863L9.58416 15.774C9.97458 15.6491 10.1828 16.0395 10.3129 16.4247L10.8439 18.5642C10.9116 18.8765 10.9064 19.1003 10.6097 19.2201L8.27236 20.1571C8.16825 20.1987 8.11619 20.3132 8.15263 20.4173C8.18907 20.5319 8.31921 20.5891 8.42853 20.5423L10.7294 19.5949C11.0729 19.4543 11.3853 19.2461 11.6508 18.9806L13.1812 17.4502C13.4987 17.1482 13.8735 16.9088 14.2796 16.7422C15.0396 16.4351 16.2212 16.2008 16.4503 17.0129C16.8771 18.5277 15.8516 19.3606 13.6185 20.865C12.7387 21.802 12.3067 23.2387 12.3067 23.2387C12.3067 23.2387 10.8803 26.8201 8.99073 27.3771C7.0907 27.9341 3.76956 22.5516 3.76956 22.5516Z" fill="black"/>
<path d="M12.7804 22.8173C12.973 22.2708 13.8267 20.7039 15.5289 19.9074C15.607 19.871 15.6747 19.9282 15.6695 20.0115L15.6122 20.9798C15.6018 21.1359 15.555 21.2921 15.4821 21.4327C15.4092 21.5732 15.3207 21.7033 15.253 21.7866C14.8835 22.2395 13.9777 23.0932 12.9626 23.0724C12.8273 23.0724 12.7336 22.9423 12.7804 22.8173Z" fill="black"/>
<path d="M12.5201 23.5349L12.2651 24.1232C12.2442 24.17 12.2807 24.2273 12.3327 24.2221L13.0563 24.196C13.1969 24.1908 13.4884 24.1752 13.6185 24.1128L14.415 23.6755C14.5503 23.6078 14.6596 23.4933 14.7221 23.3527L14.9667 22.676C14.9928 22.6083 14.9199 22.5407 14.8522 22.5771L13.7695 23.2122C13.6289 23.2851 13.4727 23.3319 13.3166 23.3423L12.7336 23.384C12.6451 23.3892 12.5618 23.4464 12.5201 23.5349Z" fill="black"/>
<path d="M11.9996 24.6334L11.7028 25.1747C11.6768 25.2216 11.7133 25.2736 11.7653 25.2736L13.2801 25.2216C13.3842 25.2216 13.4883 25.1956 13.582 25.1487C13.8371 25.0134 14.3316 24.6802 14.4774 24.0972C14.4982 23.9723 13.9048 24.2534 13.5508 24.4303C13.3738 24.5188 13.1812 24.5657 12.9834 24.5709L12.0568 24.5917C12.0308 24.6021 12.01 24.6125 11.9996 24.6334Z" fill="black"/>
<path d="M26.5126 17.2944C26.3929 18.4865 26.0962 19.6473 25.6277 20.7509C25.0186 22.1876 24.1493 23.4786 23.0405 24.5874C21.9317 25.6962 20.6408 26.5655 19.204 27.1746C17.7152 27.8044 16.138 28.122 14.5086 28.122C12.8793 28.122 11.2968 27.8044 9.81322 27.1746C8.37649 26.5655 7.08552 25.6962 5.97673 24.5874C4.86795 23.4786 3.99863 22.1876 3.38958 20.7509C2.75971 19.2621 2.44217 17.6848 2.44217 16.0555C2.44217 14.4262 2.7545 12.8489 3.38437 11.3601C3.99342 9.92337 4.86275 8.6324 5.97153 7.52362C7.08031 6.41484 8.37128 5.54551 9.80801 4.93646C11.2968 4.30659 12.8741 3.98905 14.5034 3.98905C15.9662 3.98905 17.3873 4.24413 18.7407 4.75427L20.2399 4.32741C18.5065 3.47891 16.5596 3 14.5034 3C7.29374 3 1.4427 8.84583 1.4427 16.0607C1.4427 23.2756 7.28853 29.1214 14.5034 29.1214C21.3956 29.1214 27.0436 23.7805 27.5277 17.0133L26.5126 17.2944Z" fill="black"/>
</svg>
